<svg width="46" height="46" viewBox="0 0 46 46" fill="none" xmlns="http://www.w3.org/2000/svg">
<path d="M30.9277 9.71755C27.9412 9.71755 25.0571 10.7328 22.7392 12.589C20.5236 10.9808 17.8678 10.1111 15.0793 10.1111C13.7514 10.1111 12.4361 10.3105 11.1693 10.7059L10.6086 10.8802L10.6679 11.4641C10.72 11.9816 10.5403 12.4955 10.1756 12.8657C10.03 13.0112 9.86114 13.1262 9.67428 13.2053L8.8046 13.5737L9.39037 14.314C10.1109 15.225 10.0372 16.5277 9.21967 17.3453C8.79022 17.7748 8.22059 18.0101 7.61325 18.0101C7.10114 18.0101 6.59983 17.8358 6.20092 17.5178L5.49656 16.9554L5.10485 17.7693C5.00781 17.9724 4.88563 18.1467 4.74188 18.2922C4.36993 18.6642 3.8596 18.8474 3.34031 18.7935L2.75634 18.7342L2.58204 19.2949C1.13018 23.9524 2.3718 28.9944 5.82002 32.4532C8.29073 34.9239 11.5774 36.2841 15.0738 36.2841C18.089 36.2841 20.9462 35.2707 23.2586 33.4091C25.5047 35.0334 28.1424 35.8888 30.9259 35.8888C38.1405 35.8888 44.0088 30.0182 44.0088 22.8041C44.0124 15.5876 38.1419 9.71753 30.9273 9.71753L30.9277 9.71755ZM6.84068 31.4364C3.89382 28.4806 2.75818 24.2273 3.81295 20.2239C4.5479 20.1557 5.23068 19.8358 5.76257 19.3057C5.83804 19.2303 5.90992 19.1494 5.98 19.065C6.48673 19.3147 7.04913 19.4477 7.61875 19.4477C8.6088 19.4477 9.53961 19.0614 10.2404 18.3606C11.3796 17.2213 11.6347 15.5036 10.9502 14.102C11.0364 14.0319 11.1209 13.9582 11.1999 13.8774C11.7228 13.3455 12.0373 12.6591 12.1037 11.9331C13.0741 11.678 14.0731 11.5486 15.0812 11.5486C18.1898 11.5486 21.1132 12.7597 23.3143 14.9609C27.8568 19.5034 27.8568 26.8924 23.3143 31.4344C21.1149 33.6338 18.1894 34.8449 15.0775 34.8449C11.9635 34.8449 9.03815 33.6338 6.84073 31.4362L6.84068 31.4364ZM30.9277 34.4498C28.5558 34.4498 26.3024 33.749 24.3584 32.4211C29.429 27.316 29.4202 19.0379 24.3278 13.9457C24.1841 13.8001 24.035 13.66 23.8858 13.5234C25.9055 11.9943 28.3744 11.1569 30.928 11.1569C37.35 11.1569 42.5733 16.3821 42.5733 22.8041C42.5751 29.2244 37.35 34.4495 30.928 34.4495L30.9277 34.4498Z" fill="black"/>
<path d="M15.8521 19.2354C16.4702 19.2354 17.0506 18.9946 17.4854 18.5598C17.9239 18.1285 18.1665 17.5499 18.1701 16.9318C18.1719 16.3082 17.9311 15.7225 17.4854 15.2768C17.047 14.8456 16.4666 14.6084 15.8521 14.6084C15.2376 14.6084 14.6571 14.8456 14.2097 15.2858C13.3167 16.1933 13.3185 17.6613 14.2133 18.558C14.6518 18.9946 15.234 19.2354 15.8521 19.2354H15.8521ZM15.2268 16.2993C15.3939 16.134 15.6167 16.0442 15.8521 16.0442C16.0875 16.0442 16.3103 16.1358 16.4738 16.2957C16.6427 16.4646 16.7344 16.6874 16.7326 16.9246C16.7308 17.1564 16.6409 17.3738 16.4738 17.5391C16.1396 17.8734 15.5664 17.8734 15.2304 17.5391C14.8908 17.1995 14.8926 16.6389 15.2268 16.2993L15.2268 16.2993Z" fill="black"/>
<path d="M6.82457 21.6541C6.20642 21.6541 5.62604 21.8948 5.18223 22.3387C4.29636 23.2389 4.29636 24.7051 5.18583 25.6108C5.62426 26.0492 6.20647 26.2918 6.82458 26.2918C7.44268 26.2918 8.02311 26.0492 8.46333 25.6108C9.36713 24.707 9.36713 23.2371 8.46333 22.3351C8.02309 21.8966 7.44268 21.6541 6.82458 21.6541H6.82457ZM7.44631 24.5955C7.11209 24.9297 6.53348 24.9261 6.20826 24.5991C5.86865 24.2541 5.86865 23.6935 6.20467 23.3521C6.37178 23.185 6.59279 23.0934 6.8264 23.0934C7.06 23.0934 7.28101 23.185 7.44814 23.3521C7.79494 23.7007 7.79494 24.2469 7.44634 24.5955L7.44631 24.5955Z" fill="black"/>
<path d="M15.7173 28.5813C16.3354 28.5813 16.9158 28.3387 17.3596 27.8966C18.2455 26.9964 18.2455 25.5302 17.3506 24.6209C16.9122 24.1897 16.3318 23.9525 15.7173 23.9525C15.1028 23.9525 14.5223 24.1897 14.0785 24.6245C13.1747 25.5283 13.1747 26.9964 14.0785 27.9002C14.5188 28.3405 15.101 28.5813 15.7173 28.5813H15.7173ZM15.092 25.647C15.2591 25.4817 15.4819 25.3918 15.7173 25.3918C15.9527 25.3918 16.1755 25.4835 16.3354 25.6398C16.675 25.9848 16.675 26.5454 16.339 26.8868C16.0048 27.221 15.4316 27.221 15.0956 26.8868C14.7488 26.5364 14.7488 25.9902 15.092 25.647L15.092 25.647Z" fill="black"/>
<path d="M20.5547 19.0054C19.9365 19.0054 19.3561 19.2479 18.9213 19.681C18.4829 20.1123 18.2403 20.6909 18.2367 21.309C18.2349 21.9325 18.4757 22.5183 18.9213 22.9639C19.3597 23.3952 19.9401 23.6324 20.5547 23.6324C21.1692 23.6324 21.7496 23.3952 22.1934 22.9604C22.6354 22.5183 22.8762 21.9325 22.8744 21.3091C22.8708 20.6909 22.6283 20.1123 22.1934 19.6847C21.755 19.2463 21.1728 19.0055 20.5547 19.0055V19.0054ZM21.1818 21.9415C20.8458 22.2721 20.2618 22.2667 19.9348 21.9451C19.7659 21.7761 19.6742 21.5533 19.676 21.3161C19.6778 21.0843 19.7677 20.8669 19.9348 20.7016C20.1019 20.5345 20.3229 20.4429 20.5565 20.4429C20.7901 20.4429 21.0111 20.5345 21.1818 20.707C21.3453 20.8687 21.4352 21.0844 21.437 21.3161C21.437 21.5533 21.3453 21.7761 21.1818 21.9415L21.1818 21.9415Z" fill="black"/>
<path d="M16.2619 28.7717C15.6438 28.7717 15.0634 29.0124 14.6232 29.4527C14.1848 29.8911 13.9422 30.4733 13.9422 31.0914C13.9422 31.7095 14.1847 32.29 14.6268 32.7338C15.0652 33.165 15.6456 33.4022 16.2602 33.4022C16.8747 33.4022 17.4551 33.165 17.9025 32.7248C18.7884 31.8245 18.7884 30.3583 17.8989 29.4526C17.4623 29.0142 16.8801 28.7716 16.2619 28.7716L16.2619 28.7717ZM16.8891 31.7077C16.5531 32.0384 15.9691 32.033 15.6421 31.7113C15.4749 31.5442 15.3833 31.3232 15.3833 31.0896C15.3833 30.856 15.4749 30.635 15.6421 30.4679C15.8092 30.3008 16.0302 30.2091 16.2638 30.2091C16.4974 30.2091 16.7184 30.3008 16.8819 30.4643C17.2198 30.8093 17.2198 31.3717 16.8891 31.7077L16.8891 31.7077Z" fill="black"/>
<path d="M31.1112 17.8733C31.9971 16.9731 31.9971 15.5069 31.1022 14.5976C30.6638 14.1664 30.0834 13.9292 29.4688 13.9292C28.8543 13.9292 28.2739 14.1664 27.8301 14.6012C26.9263 15.505 26.9263 16.9731 27.8301 17.8769C28.2685 18.3154 28.8507 18.5579 29.4688 18.5579C30.0869 18.5579 30.6692 18.3154 31.1112 17.8733H31.1112ZM28.8435 15.6219C29.0106 15.4565 29.2335 15.3667 29.4689 15.3667C29.7043 15.3667 29.9271 15.4583 30.087 15.6147C30.4266 15.9597 30.4266 16.5203 30.0906 16.8617C29.7564 17.1959 29.1832 17.1959 28.8472 16.8617C28.5004 16.5131 28.5004 15.9668 28.8436 15.6218L28.8435 15.6219Z" fill="black"/>
<path d="M38.8861 21.5896C38.4513 21.1476 37.8709 20.905 37.2474 20.905C36.6274 20.905 36.0435 21.1476 35.6014 21.5896C34.7156 22.4899 34.7156 23.9561 35.6104 24.8654C36.0489 25.2966 36.6311 25.5338 37.2474 25.5338C37.8673 25.5338 38.4477 25.2948 38.8807 24.8618C39.3192 24.4233 39.5618 23.8411 39.5618 23.223C39.5636 22.6067 39.321 22.0245 38.8861 21.5896H38.8861ZM37.8655 23.8447C37.5384 24.1717 36.9437 24.161 36.6274 23.8483C36.2878 23.5033 36.2878 22.9427 36.6238 22.6013C36.7909 22.4342 37.0138 22.3425 37.2492 22.3425C37.4827 22.3425 37.7002 22.4342 37.8673 22.6013C38.0344 22.7684 38.1261 22.9894 38.1261 23.223C38.1261 23.4566 38.0326 23.6776 37.8655 23.8448L37.8655 23.8447Z" fill="black"/>
<path d="M31.4617 27.2909C30.8472 27.2909 30.2668 27.5281 29.8194 27.9683C28.9335 28.8686 28.9335 30.3348 29.8248 31.2405C30.2632 31.6789 30.8454 31.9215 31.4635 31.9215C32.0816 31.9215 32.662 31.6789 33.1023 31.2405C34.0061 30.3366 34.0061 28.8668 33.0987 27.9594C32.6584 27.5281 32.078 27.2909 31.4617 27.2909L31.4617 27.2909ZM32.0834 30.2234C31.7492 30.5576 31.1706 30.554 30.8454 30.227C30.5058 29.882 30.5058 29.3213 30.8364 28.9836C31.0035 28.8183 31.2263 28.7284 31.4617 28.7284C31.6971 28.7284 31.9199 28.8182 32.0835 28.98C32.4321 29.3286 32.4321 29.8748 32.0835 30.2234H32.0834Z" fill="black"/>
<path d="M32.2272 23.8248C33.131 22.921 33.131 21.4511 32.2272 20.5491C31.7941 20.116 31.2137 19.8771 30.5938 19.8771C29.9738 19.8771 29.3953 20.1161 28.9604 20.5491C28.522 20.9875 28.2794 21.5697 28.2794 22.1878C28.2794 22.8059 28.522 23.3864 28.955 23.8212C29.3899 24.2632 29.9703 24.5058 30.592 24.5058C31.2155 24.504 31.7977 24.2615 32.2272 23.8248ZM29.7187 22.186C29.7187 21.9525 29.8104 21.7314 29.9775 21.5643C30.1392 21.4026 30.3584 21.3127 30.5938 21.3127C30.8292 21.3127 31.0484 21.4026 31.2101 21.5643C31.5587 21.9129 31.5587 22.4591 31.2065 22.8113C30.8831 23.1402 30.3099 23.1455 29.9774 22.8077C29.8103 22.6406 29.7187 22.4196 29.7187 22.186L29.7187 22.186Z" fill="black"/>
</svg>
