<svg width="46" height="46" viewBox="0 0 46 46" fill="none" xmlns="http://www.w3.org/2000/svg">
<path d="M23.92 3.68005C16.4395 3.68005 9.65265 7.99435 6.46163 14.7201H3.68006C3.36201 14.7201 3.06555 14.8854 2.89843 15.1567C2.73132 15.428 2.71515 15.7658 2.8571 16.0515L6.5371 23.4115C6.69343 23.7224 7.01145 23.9201 7.36009 23.9201C7.70872 23.9201 8.02672 23.7224 8.18307 23.4115L11.8631 16.0515C12.005 15.7658 11.9906 15.428 11.8217 15.1567C11.6546 14.8854 11.3582 14.7201 11.0401 14.7201H8.52631C11.5558 9.08873 17.4494 5.52005 23.9202 5.52005C33.5586 5.52005 41.4002 13.3617 41.4002 23.0001C41.4002 32.6384 33.5586 40.4801 23.9202 40.4801C16.7617 40.4801 10.3985 36.1891 7.71257 29.5477C7.5221 29.0769 6.98843 28.8505 6.51404 29.0392C6.04327 29.2296 5.81507 29.7651 6.00551 30.2377C8.97573 37.5779 16.0068 42.3201 23.9202 42.3201C34.5738 42.3201 43.2402 33.6537 43.2402 23.0001C43.2402 12.3465 34.5738 3.68005 23.9202 3.68005H23.92ZM7.36001 20.9425L5.16784 16.5599H9.5504L7.36001 20.9425ZM27.6 24.8399C27.6 26.3619 26.362 27.5999 24.84 27.5999V28.9799C24.84 29.4884 24.4285 29.8999 23.92 29.8999C23.4115 29.8999 23 29.4884 23 28.9799V27.5999H21.62C21.1115 27.5999 20.7 27.1884 20.7 26.6799C20.7 26.1714 21.1115 25.7599 21.62 25.7599H24.84C25.3468 25.7599 25.76 25.3466 25.76 24.8399C25.76 24.3332 25.3467 23.9199 24.84 23.9199H23C21.4781 23.9199 20.24 22.6819 20.24 21.1599C20.24 19.638 21.4781 18.3999 23 18.3999V17.0199C23 16.5114 23.4115 16.0999 23.92 16.0999C24.4285 16.0999 24.84 16.5114 24.84 17.0199V18.3999H26.22C26.7285 18.3999 27.14 18.8114 27.14 19.3199C27.14 19.8284 26.7285 20.2399 26.22 20.2399H23C22.4933 20.2399 22.08 20.6532 22.08 21.1599C22.08 21.6666 22.4933 22.0799 23 22.0799H24.84C26.362 22.0799 27.6 23.318 27.6 24.8399ZM23.92 33.5799C18.0854 33.5799 13.34 28.8346 13.34 22.9999C13.34 17.1653 18.0854 12.4199 23.92 12.4199C29.7547 12.4199 34.5 17.1653 34.5 22.9999C34.5 28.8346 29.7547 33.5799 23.92 33.5799ZM23.92 14.2599C19.1006 14.2599 15.18 18.1807 15.18 22.9999C15.18 27.8191 19.1008 31.7399 23.92 31.7399C28.7393 31.7399 32.66 27.8191 32.66 22.9999C32.66 18.1807 28.7393 14.2599 23.92 14.2599Z" fill="black"/>
</svg>
