<svg width="46" height="46" viewBox="0 0 46 46" fill="none" xmlns="http://www.w3.org/2000/svg">
<path fill-rule="evenodd" clip-rule="evenodd" d="M16.9519 20.2684H29.0485V30.5485H16.9519V20.2684ZM18.756 22.0725H27.2444V28.7443H18.756V22.0725Z" fill="black"/>
<path d="M20.5726 20.1305V21.0326H18.7685V17.7622C18.7685 16.6392 19.2141 15.5629 20.0065 14.7686C20.8008 13.9762 21.8789 13.5288 23.0001 13.5288C24.1214 13.5288 25.1995 13.9762 25.9937 14.7686C26.7862 15.5629 27.2318 16.6392 27.2318 17.7622V21.0326H25.4277V17.7622C25.4277 17.119 25.1725 16.499 24.7179 16.0444C24.2615 15.5898 23.6434 15.3328 23.0001 15.3328C22.3568 15.3328 21.7387 15.5898 21.2823 16.0444C20.8276 16.499 20.5725 17.1189 20.5725 17.7622L20.5726 20.1305Z" fill="black"/>
<path d="M22.1931 3.95489L21.6451 3.23793L23.0772 2.14185L23.6252 2.85701C24.0709 3.43739 24.5399 3.99804 25.0358 4.53527C25.5515 5.09771 26.087 5.63854 26.6458 6.15604C27.2262 6.6969 27.8245 7.21799 28.4408 7.71751C29.0823 8.2368 29.7382 8.73631 30.4102 9.21609C31.1056 9.71381 31.8154 10.1918 32.5359 10.65C33.2816 11.1244 34.0363 11.5826 34.8054 12.021C35.5942 12.4721 36.3938 12.9087 37.2006 13.3255C38.205 13.8448 39.222 14.3426 40.2481 14.8152C40.2247 15.6525 40.1708 16.4863 40.0846 17.32C40.0163 17.9813 39.93 18.6407 39.8276 19.2966C39.6102 20.682 39.3227 22.0548 38.9669 23.4114C38.5985 24.8291 38.1565 26.2253 37.6444 27.5964C37.1269 28.9926 36.5303 30.3546 35.8565 31.6824C35.5205 32.3437 35.1629 32.9942 34.7856 33.6321C34.4118 34.2664 34.0147 34.8863 33.5961 35.4918C33.181 36.0902 32.7443 36.6742 32.2843 37.2384C31.8297 37.7954 31.35 38.3327 30.8486 38.8484C30.3509 39.3587 29.8316 39.8421 29.2872 40.3003C28.7481 40.7549 28.1839 41.1771 27.5981 41.5671C27.0141 41.957 26.4068 42.3092 25.7815 42.6254C25.1508 42.9417 24.5021 43.2166 23.8354 43.4466L22.9837 43.7413L22.3943 42.0361L23.2461 41.7414C23.8354 41.5384 24.4123 41.294 24.9711 41.0137C25.5317 40.7316 26.0743 40.4153 26.5973 40.0685C27.1273 39.7127 27.6377 39.33 28.1264 38.9203C28.6241 38.5016 29.1021 38.0578 29.5549 37.5906C30.0203 37.1127 30.4642 36.6149 30.8846 36.0974C31.3159 35.571 31.7237 35.0265 32.1119 34.4659C32.5072 33.8962 32.881 33.3105 33.2331 32.7139C33.5925 32.1084 33.9303 31.4921 34.2484 30.8649C34.8898 29.5999 35.4612 28.299 35.9554 26.9675C36.4459 25.6522 36.8682 24.3135 37.2222 22.9568C37.5618 21.6577 37.8367 20.3424 38.0452 19.0163C38.144 18.391 38.2248 17.7639 38.2895 17.1332C38.3309 16.7342 38.365 16.3353 38.3902 15.9346C37.7127 15.6094 37.0407 15.2734 36.3723 14.9266C35.5421 14.4989 34.7191 14.0515 33.9087 13.5861C33.1163 13.1333 32.3365 12.6625 31.5674 12.172C30.8181 11.6958 30.0832 11.1998 29.3609 10.6841C28.6601 10.1828 27.9755 9.6617 27.3052 9.11908C26.6565 8.5944 26.0277 8.04457 25.4167 7.47674C24.8237 6.9269 24.2541 6.3519 23.7079 5.75712C23.176 5.17854 22.6711 4.57658 22.1931 3.95484L22.1931 3.95489Z" fill="black"/>
<path d="M22.7539 41.7413L23.6056 42.036L23.0163 43.7412L22.1645 43.4465C21.4979 43.2165 20.8492 42.9416 20.2185 42.6253C19.5932 42.3091 18.9858 41.9569 18.4019 41.5669C17.8161 41.177 17.2519 40.7548 16.7128 40.3001C16.1683 39.8419 15.6491 39.3586 15.1513 38.8483C14.65 38.3326 14.1702 37.7953 13.7156 37.2383C13.2556 36.6741 12.819 36.0901 12.4039 35.4917C11.9852 34.8862 11.5881 34.2662 11.2144 33.6319C10.837 32.9941 10.4794 32.3436 10.1434 31.6823C9.46964 30.3544 8.87307 28.9924 8.35557 27.5962C7.84345 26.2252 7.40143 24.8291 7.03307 23.4113C6.67728 22.0547 6.3898 20.6818 6.17236 19.2965C6.06994 18.6406 5.98369 17.9811 5.91541 17.3199C5.82916 16.4861 5.77525 15.6524 5.75189 14.815C6.78151 14.3407 7.80032 13.8429 8.81016 13.3236C9.62413 12.905 10.4309 12.4701 11.227 12.0191C12.005 11.5789 12.7705 11.1225 13.5252 10.6481C14.2583 10.1881 14.9789 9.70831 15.6868 9.21238C16.3678 8.73081 17.0362 8.23129 17.6867 7.712C18.3139 7.21428 18.923 6.69319 19.5124 6.15232C20.0766 5.63482 20.6192 5.09396 21.1404 4.53156C21.6381 3.99608 22.1107 3.43727 22.5545 2.85689L23.1043 2.14172L24.5347 3.23961L23.9866 3.95477C23.5068 4.5783 22.9984 5.18205 22.4629 5.76063C21.9094 6.35721 21.3309 6.93221 20.7325 7.48205C20.1107 8.05166 19.4711 8.59791 18.8116 9.12259C18.1306 9.66525 17.4352 10.1863 16.7236 10.6876C15.9905 11.2016 15.2448 11.6975 14.4847 12.1755C13.7067 12.6642 12.916 13.135 12.1165 13.5896C11.2989 14.0514 10.4705 14.4988 9.63319 14.9283C8.96297 15.2733 8.28911 15.6093 7.60992 15.9345C7.63508 16.3352 7.66922 16.7342 7.71055 17.1331C7.77523 17.7638 7.8561 18.3909 7.95492 19.0162C8.16336 20.3423 8.43829 21.6576 8.77791 22.9568C9.13189 24.3134 9.55416 25.6521 10.0447 26.9674C10.5388 28.2989 11.1102 29.5999 11.7517 30.8649C12.0698 31.492 12.4076 32.1083 12.7669 32.7138C13.1191 33.3104 13.4929 33.8962 13.8882 34.4658C14.2763 35.0264 14.6842 35.5708 15.1155 36.0974C15.5359 36.6149 15.9798 37.1126 16.4451 37.5906C16.898 38.0577 17.3759 38.5016 17.8737 38.9202C18.3624 39.3299 18.8727 39.7127 19.4028 40.0684C19.9257 40.4152 20.4684 40.7315 21.029 41.0136C21.5878 41.2939 22.1646 41.5383 22.754 41.7413L22.7539 41.7413Z" fill="black"/>
</svg>
